<svg xmlns="http://www.w3.org/2000/svg" version="1.1" xmlnsXlink="http://www.w3.org/1999/xlink" xmlnsSvgjs="http://svgjs.dev/svgjs" width="100%" height="100%" viewBox="0 0 1000 600"><rect width="1000" height="600" x="0" y="0" fill="#2b3252"/><g><rect width="333.3333333333333" height="333.3333333333333" y="174.14351430916832" fill="#fad744" transform="matrix(0.8227946300326652,0,0,0.822794630032665,0,19.583225899641747)" x="151.92129516601565"/><path d="M304.64044333705675 413.81360935568915L290.72144737059676 375.7075056442332L229.5406146901529 375.7075056442332L215.82127645272 413.81360935568915L195.9410711481655 413.81360935568915L251.70262261215984 267.8067643714503L268.55943944858984 267.8067643714503L324.40655851073865 413.81360935568915L304.64044333705675 413.81360935568915ZM260.11676976401577 291.5660341256739L235.35921136465663 359.8774999856568L284.98841829424754 359.8774999856568L260.11676976401577 291.5660341256739ZM387.07056289252665 348.7251896928579L387.07056289252665 348.7251896928579Q362.31300449316757 341.62307904603716 351.0180815367779 331.2408771366285Q339.7516811131064 320.85867522721986 339.7516811131064 305.62764275572465L339.7516811131064 305.62764275572465Q339.7516811131064 288.3715104612405 353.5280644159756 277.07658750485086Q367.3329702515629 265.8101870811794 389.38088804269734 265.8101870811794L389.38088804269734 265.8101870811794Q404.4122627851653 265.8101870811794 416.2205913304818 271.6287837556831Q428.0003973430801 277.44738043018685 434.4464897373833 287.65844714328665Q440.9211046644046 297.8980363891045 440.9211046644046 310.02011279432065L440.9211046644046 310.02011279432065L421.58282748149503 310.02011279432065Q421.58282748149503 296.7856576130964 413.14015779692096 289.2271864427852Q404.72601064506506 281.6401927397558 389.38088804269734 281.6401927397558L389.38088804269734 281.6401927397558Q375.1481442163376 281.6401927397558 367.161835055254 287.91514993775Q359.2040484268886 294.19010713574426 359.2040484268886 305.313894895825L359.2040484268886 305.313894895825Q359.2040484268886 314.2414476366077 366.76251959719986 320.40231470372936Q374.34951330022926 326.56318177085103 392.54688917441257 331.697237660119Q410.7442650485959 336.8027710166688 421.01237682713196 342.9636380837905Q431.3090111383862 349.12450515091217 436.27193183134517 357.36751710645916Q441.23485252430436 365.582006529288 441.23485252430436 376.7057942893686L441.23485252430436 376.7057942893686Q441.23485252430436 394.44680964006153 427.40142415599877 405.14275940936983Q413.5394732549751 415.8101866459601 390.37917668783274 415.8101866459601L390.37917668783274 415.8101866459601Q375.34780194536467 415.8101866459601 362.31300449316757 410.0486350368927Q349.2782070409704 404.28708342782517 342.2046189268678 394.24715191103445Q335.13103081276523 384.2357429269618 335.13103081276523 371.4861708019461L335.13103081276523 371.4861708019461L354.4978305283929 371.4861708019461Q354.4978305283929 384.72062598317035 364.25253671800215 392.39318728435427Q374.03576544032956 400.0657485855382 390.37917668783274 400.0657485855382L390.37917668783274 400.0657485855382Q405.638731692046 400.0657485855382 413.7391309840023 393.8478364529802Q421.8680528086766 387.6299243204223 421.8680528086766 376.9054520183957Q421.8680528086766 366.1809797163692 414.33810417108356 360.30533797642914Q406.83667806620855 354.45821876920724 387.07056289252665 348.7251896928579Z " fill="#2b3252" transform="matrix(0.8227946300326652,0,0,0.822794630032665,0,19.583225899641747)"/><path d="M651.4598195684351 383.2355367735674L640.8480473831875 354.18363587297137L594.2040897246707 354.18363587297137L583.7445355830638 383.2355367735674L568.5879675233966 383.2355367735674L611.1002925688048 271.92065600249634L623.9518445390535 271.92065600249634L666.529405888879 383.2355367735674L651.4598195684351 383.2355367735674ZM617.5151958365261 290.0346031957572L598.640158425061 342.1149195557328L636.4772149872146 342.1149195557328L617.5151958365261 290.0346031957572ZM714.3041261572992 333.61245454665124L714.3041261572992 333.61245454665124Q695.4290887458341 328.19784127999816 686.8178965627234 320.28250301067413Q678.2284498144184 312.3671647413501 678.2284498144184 300.755102555034L678.2284498144184 300.755102555034Q678.2284498144184 287.5991144975036 688.7314948256368 278.98792231439285Q699.2562852716611 270.3984755660879 716.0655063765718 270.3984755660879L716.0655063765718 270.3984755660879Q727.525350519247 270.3984755660879 736.5279605288629 274.83454426647825Q745.5088251036728 279.2706129668687 750.4232933697916 287.05547862735773Q755.3595070707163 294.8620897226526 755.3595070707163 304.10389951513264L755.3595070707163 304.10389951513264L740.6161022723599 304.10389951513264Q740.6161022723599 294.01401776522505 734.1794535698326 288.2514775416787Q727.7645503021113 282.46719188332645 716.0655063765718 282.46719188332645L716.0655063765718 282.46719188332645Q705.21453440846 282.46719188332645 699.1258126628261 287.25118754061026Q693.058836351998 292.03518319789407 693.058836351998 300.51590277216985L693.058836351998 300.51590277216985Q693.058836351998 307.32222386639626 698.8213765755444 312.0192377844567Q704.6056622338966 316.7162517025171 718.4792496400196 320.6304299675675Q732.3528370461426 324.522862797812 740.1811935762432 329.21987671587243Q748.0312955411498 333.91689063393284 751.8150011973652 340.2013212928193Q755.5987068535804 346.46400651689993 755.5987068535804 354.9447260911756L755.5987068535804 354.9447260911756Q755.5987068535804 368.4703865404052 745.0521709727503 376.62492459259346Q734.4838896571143 384.75771720997585 716.8265965947761 384.75771720997585L716.8265965947761 384.75771720997585Q705.3667524521009 384.75771720997585 695.4290887458341 380.36513937919716Q685.4914250395674 375.97256154841835 680.0985572077202 368.3181684967644Q674.705689375873 360.68552087991617 674.705689375873 350.96531152170775L674.705689375873 350.96531152170775L689.4708396090352 350.96531152170775Q689.4708396090352 361.05519327161534 696.907778312631 366.90471523438504Q704.3664624510325 372.75423719715474 716.8265965947761 372.75423719715474L716.8265965947761 372.75423719715474Q728.4604042158979 372.75423719715474 734.6361077007552 368.01373240948266Q740.8335566204182 363.2732276218106 740.8335566204182 355.0969441348165Q740.8335566204182 346.92066064782244 735.0927618316778 342.4411010778203Q729.3737124777431 337.98328694262403 714.3041261572992 333.61245454665124ZM813.0066547409857 383.2355367735674L774.4085079606281 383.2355367735674L774.4085079606281 271.92065600249634L810.7886203907905 271.92065600249634Q828.9025675840513 271.92065600249634 838.0356502025022 279.4228310105095Q847.1687328209531 286.90326058371693 847.1687328209531 301.5814290776558L847.1687328209531 301.5814290776558Q847.1687328209531 309.3880401729506 842.7326641205626 315.38978017936114Q838.318340854978 321.39152018577175 830.663947803324 324.6750808414528L830.663947803324 324.6750808414528Q839.6883032477457 327.1975512789298 844.9289530359521 334.2648175908262Q850.1478573893525 341.3320839027228 850.1478573893525 351.11752956534866L850.1478573893525 351.11752956534866Q850.1478573893525 366.10013414656913 840.4493934659499 374.66783546006826Q830.7509295425474 383.2355367735674 813.0066547409857 383.2355367735674L813.0066547409857 383.2355367735674ZM813.5502906111316 331.17696584839763L789.0866764545668 331.17696584839763L789.0866764545668 371.2320567607463L813.3110908282674 371.2320567607463Q823.5531906218158 371.2320567607463 829.489694323809 365.92617066812244Q835.4044525909961 360.5985391406928 835.4044525909961 351.26974760898946L835.4044525909961 351.26974760898946Q835.4044525909961 331.17696584839763 813.5502906111316 331.17696584839763L813.5502906111316 331.17696584839763ZM789.0866764545668 284.0111177545408L789.0866764545668 319.3909401836349L811.245274521713 319.3909401836349Q820.8785021406981 319.3909401836349 826.6410423642445 314.58519909154523Q832.4253280225967 309.75771256464986 832.4253280225967 301.51619277323823L832.4253280225967 301.51619277323823Q832.4253280225967 292.33961928517573 827.0759510603613 288.16449580245535Q821.7265740981258 284.0111177545408 810.7886203907905 284.0111177545408L810.7886203907905 284.0111177545408L789.0866764545668 284.0111177545408ZM885.0275348179124 265.8101888220566L885.0275348179124 383.2355367735674L870.8712567593135 383.2355367735674L870.8712567593135 265.8101888220566L885.0275348179124 265.8101888220566ZM903.9025722293774 342.1149195557328L903.9025722293774 341.1146295546643Q903.9025722293774 328.9589314982024 908.6865678866611 319.2387221399941Q913.4488181091391 309.5402582165915 921.9730285530266 304.25611755877344Q930.497238996914 298.9937223357613 941.4351927042492 298.9937223357613L941.4351927042492 298.9937223357613Q958.3313955483833 298.9937223357613 968.7692042551843 310.6927662613008Q979.2070129619851 322.39181018684013 979.2070129619851 341.8104834684511L979.2070129619851 341.8104834684511L979.2070129619851 342.7890280347137Q979.2070129619851 354.87948978675814 974.5752353483423 364.46922653613154Q969.9434577346993 374.05896328550494 961.3540109863943 379.40834024774034Q952.7428188032835 384.75771720997585 941.58741074789 384.75771720997585L941.58741074789 384.75771720997585Q924.7781896429793 384.75771720997585 914.3403809361783 373.05867328443645Q903.9025722293774 361.38137479370295 903.9025722293774 342.1149195557328L903.9025722293774 342.1149195557328ZM918.1240865923937 342.7890280347137L918.1240865923937 342.7890280347137Q918.1240865923937 356.5538882668075 924.4954989905035 364.8823897974424Q930.8886568234191 373.21089132807737 941.58741074789 373.21089132807737L941.58741074789 373.21089132807737Q952.3731464115843 373.21089132807737 958.7228133748882 364.77366262341326Q965.0507349033863 356.31468848394326 965.0507349033863 341.1146295546643L965.0507349033863 341.1146295546643Q965.0507349033863 327.5019873662115 958.5923407660533 319.0647586615474Q952.1339466287202 310.60578452207744 941.4351927042492 310.60578452207744L941.4351927042492 310.60578452207744Q930.9756385626424 310.60578452207744 924.5389898601151 318.93428605271237Q918.1240865923937 327.2845330181531 918.1240865923937 342.7890280347137ZM993.5807453686423 341.1798658590819L993.5807453686423 341.1798658590819Q993.5807453686423 321.84817431669427 1002.5181190738407 310.41007560882485Q1011.4554927790389 298.9937223357613 1026.220643012201 298.9937223357613L1026.220643012201 298.9937223357613Q1041.3554656370625 298.9937223357613 1049.836185211338 309.6924762602323L1049.836185211338 309.6924762602323L1050.5320391251248 300.51590277216985L1063.4488273997913 300.51590277216985L1063.4488273997913 381.2567022062364Q1063.4488273997913 397.30483309294283 1053.9243269548351 406.54664288542284Q1044.4215719446852 415.81019811270875 1028.3516956231729 415.81019811270875L1028.3516956231729 415.81019811270875Q1019.4143219179747 415.81019811270875 1010.8466206044756 411.9830015868817Q1002.3006647257823 408.15580506105476 997.7776142861685 401.50170201046905L997.7776142861685 401.50170201046905L1005.1275712505409 393.02098243619326Q1014.21716299938 404.26337223081015 1027.3731510569105 404.26337223081015L1027.3731510569105 404.26337223081015Q1037.6804871548761 404.26337223081015 1043.4647728132286 398.4573411376521Q1049.2273130367748 392.6295646096882 1049.2273130367748 382.0830287288581L1049.2273130367748 382.0830287288581L1049.2273130367748 374.97227154735Q1040.7465934624993 384.75771720997585 1026.06842496856 384.75771720997585L1026.06842496856 384.75771720997585Q1011.5424745182623 384.75771720997585 1002.5616099434523 373.05867328443645Q993.5807453686423 361.38137479370295 993.5807453686423 341.1798658590819ZM1007.8022597316586 342.7890280347137L1007.8022597316586 342.7890280347137Q1007.8022597316586 356.79308804967167 1013.5213090855933 364.77366262341326Q1019.2621038743338 372.75423719715474 1029.5911854071055 372.75423719715474L1029.5911854071055 372.75423719715474Q1042.9646278126943 372.75423719715474 1049.2273130367748 360.5985391406928L1049.2273130367748 360.5985391406928L1049.2273130367748 322.84846431776265Q1042.7254280298303 310.9972023485824 1029.7434034507464 310.9972023485824L1029.7434034507464 310.9972023485824Q1019.4143219179747 310.9972023485824 1013.6082908248167 319.0212677919357Q1007.8022597316586 327.04533323528887 1007.8022597316586 342.7890280347137Z " fill="#fad744" transform="matrix(0.8227946300326652,0,0,0.822794630032665,0,19.583225899641747)"/></g></svg>